# xmcd
#
# Track frame offsets:
#	150
#	3745
#	18045
#	30225
#	50577
#	66750
#	82629
#	105463
#	121391
#	139631
#	169867
#	188303
#	202654
#	214191
#	217161
#	228101
#	243135
#
# Disc length: 3511 seconds
#
# Revision: 1
# Processed by: cddbd v1.5.2PL0 Copyright (c) Steve Scherf et al.
# Submitted via: audiograbber 1.83.01
#
DISCID=cb0db511
DTITLE=Strom und Wasser - Farbengeil
DYEAR=2007
DGENRE=
TTITLE0=Patriotisches Intro
TTITLE1=Fütter Deinen Teufel
TTITLE2=Das Märchen von Mr. Calamachi
TTITLE3=Das kleine Chaos
TTITLE4=Lied von der schlafenden Armut
TTITLE5=Rote Milanin
TTITLE6=Die große Mondpolka
TTITLE7=Farbengeil
TTITLE8=Träumerchen
TTITLE9=Leichtes Lied
TTITLE10=Kamikaze-Knaben
TTITLE11=Wild wie Du
TTITLE12=Der Riesenmann mit dem Riesenhut
TTITLE13=Ulla-Intro
TTITLE14=Kreuzfahrt ins Nichts
TTITLE15=Aschemann
TTITLE16=Das ganz große Wort
EXTD=
EXTT0=
EXTT1=
EXTT2=
EXTT3=
EXTT4=
EXTT5=
EXTT6=
EXTT7=
EXTT8=
EXTT9=
EXTT10=
EXTT11=
EXTT12=
EXTT13=
EXTT14=
EXTT15=
EXTT16=
PLAYORDER=
